<svg xmlns="http://www.w3.org/2000/svg" viewBox="0 0 160 150" width="160" height="150" role="img" aria-label="Checkered finish flag">
<title>Checkered finish flag</title>
<path d="M22 142V14" stroke="#1A1A1A" stroke-width="9" stroke-linejoin="round" stroke-linecap="round"/>
<rect x="26" y="12" width="112" height="80" fill="#FFFFFF" stroke="#1A1A1A" stroke-width="5" stroke-linejoin="round" stroke-linecap="round"/>
<rect x="26" y="12" width="14" height="16" fill="#1A1A1A"/><rect x="26" y="44" width="14" height="16" fill="#1A1A1A"/><rect x="26" y="76" width="14" height="16" fill="#1A1A1A"/><rect x="40" y="28" width="14" height="16" fill="#1A1A1A"/><rect x="40" y="60" width="14" height="16" fill="#1A1A1A"/><rect x="54" y="12" width="14" height="16" fill="#1A1A1A"/><rect x="54" y="44" width="14" height="16" fill="#1A1A1A"/><rect x="54" y="76" width="14" height="16" fill="#1A1A1A"/><rect x="68" y="28" width="14" height="16" fill="#1A1A1A"/><rect x="68" y="60" width="14" height="16" fill="#1A1A1A"/><rect x="82" y="12" width="14" height="16" fill="#1A1A1A"/><rect x="82" y="44" width="14" height="16" fill="#1A1A1A"/><rect x="82" y="76" width="14" height="16" fill="#1A1A1A"/><rect x="96" y="28" width="14" height="16" fill="#1A1A1A"/><rect x="96" y="60" width="14" height="16" fill="#1A1A1A"/><rect x="110" y="12" width="14" height="16" fill="#1A1A1A"/><rect x="110" y="44" width="14" height="16" fill="#1A1A1A"/><rect x="110" y="76" width="14" height="16" fill="#1A1A1A"/><rect x="124" y="28" width="14" height="16" fill="#1A1A1A"/><rect x="124" y="60" width="14" height="16" fill="#1A1A1A"/>
<rect x="26" y="12" width="112" height="80" fill="none" stroke="#1A1A1A" stroke-width="5" stroke-linejoin="round" stroke-linecap="round"/>
<circle cx="22" cy="10" r="9" fill="#DA291C" stroke="#1A1A1A" stroke-width="4" stroke-linejoin="round" stroke-linecap="round"/>
</svg>
