<svg xmlns="http://www.w3.org/2000/svg" viewBox="0 0 200 220" width="200" height="220" role="img" aria-label="Maple leaf (rating unit, fill via currentColor)">
<title>Maple leaf (rating unit, fill via currentColor)</title>
<g transform="translate(100,110)"><path d="M0-100 11-64 33-68 26-44 56-52 49-32 89-8 78 2 84 18 46 10 50 24 20 52 28 60 8 64 8 100-8 100-8 64-28 60-20 52-50 24-46 10-84 18-78 2-89-8-49-32-56-52-26-44-33-68-11-64Z" fill="currentColor" stroke="#1A1A1A" stroke-width="7" stroke-linejoin="round"/></g>
</svg>
