<svg xmlns="http://www.w3.org/2000/svg" viewBox="0 0 280 176" width="280" height="176" role="img" aria-label="Team Maple — Ava and Liam, Toronto">
<title>Team Maple — Ava and Liam, Toronto</title>
<defs><clipPath id="cc"><rect x="5" y="5" width="270" height="166" rx="26"/></clipPath></defs>
<rect x="5" y="5" width="270" height="166" rx="26" fill="#FFD7D2"/>
<g clip-path="url(#cc)">
  <path d="M0 118h280v60H0z" fill="#F7A9A0"/>
  <g opacity="0.45" fill="#FFFFFF"><circle cx="46" cy="44" r="20"/><circle cx="72" cy="38" r="14"/><circle cx="236" cy="52" r="18"/><circle cx="212" cy="44" r="12"/></g>
  <g transform="translate(140,86) scale(2.6)" fill="#DA291C" opacity="0.18">
    <path d="M0-22 5-9l13-5-5 12 12 3-10 8 4 12-14-5-9 10-2-14-13 2 6-11-11-7 12-4-4-13 12 6z"/></g>
  <g transform="translate(143.6,26) scale(0.78)"><g stroke-linejoin="round">
  <!-- backpack peeking over the shoulders -->
  <g fill="#DA291C" stroke="#1A1A1A" stroke-width="5">
    <rect x="14" y="142" width="27" height="40" rx="12"/><rect x="119" y="142" width="27" height="40" rx="12"/>
  </g>
  <path d="M68 108h24v28H68z" fill="#EFC49A" stroke="#1A1A1A" stroke-width="5"/>
  <!-- shirt -->
  <path d="M26 182c0-30 22-48 54-48s54 18 54 48z" fill="#FFFFFF" stroke="#1A1A1A" stroke-width="5"/>
  <path d="M62 136c4 10 10 16 18 16s14-6 18-16" fill="#DA291C" stroke="#1A1A1A" stroke-width="5"/>
  <!-- backpack straps -->
  <g fill="#DA291C" stroke="#1A1A1A" stroke-width="4.5">
    <path d="M52 139c-6 13-8 27-8 43h11c0-17 3-29 8-39z"/>
    <path d="M108 139c6 13 8 27 8 43h-11c0-17-3-29-8-39z"/>
  </g>
  <!-- head -->
  <ellipse cx="44" cy="86" rx="8" ry="10" fill="#EFC49A" stroke="#1A1A1A" stroke-width="5"/>
  <ellipse cx="116" cy="86" rx="8" ry="10" fill="#EFC49A" stroke="#1A1A1A" stroke-width="5"/>
  <ellipse cx="80" cy="82" rx="37" ry="39" fill="#EFC49A" stroke="#1A1A1A" stroke-width="5"/>
  <path d="M42 84C42 46 58 32 80 32c24 0 36 16 36 54-2-16-10-24-22-26-12-2-26 6-36 14-6 4-12 6-16 10z" fill="#5A3520" stroke="#1A1A1A" stroke-width="5" stroke-linejoin="round"/>
  <g stroke="#1A1A1A" stroke-width="5" stroke-linejoin="round">
  <path d="M42 68c0-24 16-40 38-40s38 16 38 40c-16-10-24-12-38-12s-24 2-38 12z" fill="#FFFFFF"/>
  <path d="M114 60h26c6 0 8 12 0 14l-30 2z" fill="#DA291C"/>
  <circle cx="80" cy="28" r="6" fill="#DA291C"/></g>
  <g>
  <ellipse cx="66" cy="80" rx="5.5" ry="6.5" fill="#1A1A1A"/><ellipse cx="94" cy="80" rx="5.5" ry="6.5" fill="#1A1A1A"/>
  <circle cx="64" cy="77.5" r="2" fill="#FFFFFF"/><circle cx="92" cy="77.5" r="2" fill="#FFFFFF"/>
  <path d="M58 66c5-4 11-4 15-1M87 65c4-3 10-3 15 1" fill="none" stroke="#1A1A1A" stroke-width="4" stroke-linecap="round"/></g>
<g fill="#DA291C" opacity="0.25"><ellipse cx="53" cy="94" rx="9" ry="6"/><ellipse cx="107" cy="94" rx="9" ry="6"/></g>
<path d="M66 96c8 0 20 0 28 0 0 10-6 16-14 16s-14-6-14-16z" fill="#1A1A1A"/><path d="M72 108c4-4 12-4 16 0" fill="#E8607A" stroke="none"/>
</g></g>
  <g transform="translate(11.6,30) scale(0.78)"><g stroke-linejoin="round">
  <!-- backpack peeking over the shoulders -->
  <g fill="#FFFFFF" stroke="#1A1A1A" stroke-width="5">
    <rect x="14" y="142" width="27" height="40" rx="12"/><rect x="119" y="142" width="27" height="40" rx="12"/>
  </g>
  <path d="M38 70c0-26 18-42 42-42s42 16 42 42v76c0 6-6 10-14 8-6-2-8-10-8-22V96H60v56c0 12-2 20-8 22-8 2-14-2-14-8z" fill="#5A3520" stroke="#1A1A1A" stroke-width="5" stroke-linejoin="round"/>
  <path d="M68 108h24v28H68z" fill="#EFC49A" stroke="#1A1A1A" stroke-width="5"/>
  <!-- shirt -->
  <path d="M26 182c0-30 22-48 54-48s54 18 54 48z" fill="#DA291C" stroke="#1A1A1A" stroke-width="5"/>
  <path d="M62 136c4 10 10 16 18 16s14-6 18-16" fill="#FFFFFF" stroke="#1A1A1A" stroke-width="5"/>
  <!-- backpack straps -->
  <g fill="#FFFFFF" stroke="#1A1A1A" stroke-width="4.5">
    <path d="M52 139c-6 13-8 27-8 43h11c0-17 3-29 8-39z"/>
    <path d="M108 139c6 13 8 27 8 43h-11c0-17-3-29-8-39z"/>
  </g>
  <!-- head -->
  <ellipse cx="44" cy="86" rx="8" ry="10" fill="#EFC49A" stroke="#1A1A1A" stroke-width="5"/>
  <ellipse cx="116" cy="86" rx="8" ry="10" fill="#EFC49A" stroke="#1A1A1A" stroke-width="5"/>
  <ellipse cx="80" cy="82" rx="37" ry="39" fill="#EFC49A" stroke="#1A1A1A" stroke-width="5"/>
  <path d="M42 84C42 46 58 32 80 32c24 0 36 16 36 54-2-16-10-24-22-26-12-2-26 6-36 14-6 4-12 6-16 10z" fill="#5A3520" stroke="#1A1A1A" stroke-width="5" stroke-linejoin="round"/>
  <g fill="#5A3520" stroke="#1A1A1A" stroke-width="4" stroke-linejoin="round"><path d="M47 64c-7 9-9 20-6 32 9-5 13-16 13-28z"/><path d="M113 64c7 9 9 20 6 32-9-5-13-16-13-28z"/></g>
  <path d="M42 66c10-8 24-12 38-12s28 4 38 12c-2 8-4 12-6 14-12-8-20-10-32-10s-20 2-32 10c-2-2-4-6-6-14z" fill="#DA291C" stroke="#1A1A1A" stroke-width="5" stroke-linejoin="round"/>
  <g>
  <ellipse cx="66" cy="80" rx="5.5" ry="6.5" fill="#1A1A1A"/><ellipse cx="94" cy="80" rx="5.5" ry="6.5" fill="#1A1A1A"/>
  <circle cx="64" cy="77.5" r="2" fill="#FFFFFF"/><circle cx="92" cy="77.5" r="2" fill="#FFFFFF"/>
  </g>
<g fill="#DA291C" opacity="0.25"><ellipse cx="53" cy="94" rx="9" ry="6"/><ellipse cx="107" cy="94" rx="9" ry="6"/></g>
<path d="M66 96c6 10 22 10 28 0" fill="none" stroke="#1A1A1A" stroke-width="5" stroke-linecap="round"/>
</g></g>
</g>
<rect x="5" y="5" width="270" height="166" rx="26" fill="none" stroke="#1A1A1A" stroke-width="6"/>
<rect x="14" y="14" width="252" height="148" rx="19" fill="none" stroke="#DA291C" stroke-width="4" opacity="0.75"/>
</svg>
