<svg xmlns="http://www.w3.org/2000/svg" viewBox="0 0 168 168" width="168" height="168" role="img" aria-label="Kid racer 4 — ponytail and cap">
<title>Kid racer 4 — ponytail and cap</title>
<defs><clipPath id="k4c"><circle cx="84" cy="84" r="77"/></clipPath></defs>
<circle cx="84" cy="84" r="77" fill="#FFC8C2"/>
<g clip-path="url(#k4c)">
  <circle cx="84" cy="70" r="60" fill="#FFFFFF" opacity="0.3"/>
  <g transform="translate(8,-10) scale(0.95)"><g stroke-linejoin="round">
  <!-- backpack peeking over the shoulders -->
  <g fill="#FFC20E" stroke="#1A1A1A" stroke-width="5">
    <rect x="14" y="142" width="27" height="40" rx="12"/><rect x="119" y="142" width="27" height="40" rx="12"/>
  </g>
  <g fill="#E8C36B" stroke="#1A1A1A" stroke-width="5" stroke-linejoin="round">
  <path d="M108 44c20-8 40 4 42 26 2 21-8 37-22 43-9 4-17-3-12-12 9-16 10-30 1-42-4-6-7-11-9-15z"/></g>
  <path d="M68 108h24v28H68z" fill="#EFC49A" stroke="#1A1A1A" stroke-width="5"/>
  <!-- shirt -->
  <path d="M26 182c0-30 22-48 54-48s54 18 54 48z" fill="#2FB57C" stroke="#1A1A1A" stroke-width="5"/>
  <path d="M62 136c4 10 10 16 18 16s14-6 18-16" fill="#FFFFFF" stroke="#1A1A1A" stroke-width="5"/>
  <!-- backpack straps -->
  <g fill="#1A1A1A" stroke="#1A1A1A" stroke-width="4.5">
    <path d="M52 139c-6 13-8 27-8 43h11c0-17 3-29 8-39z"/>
    <path d="M108 139c6 13 8 27 8 43h-11c0-17-3-29-8-39z"/>
  </g>
  <!-- head -->
  <ellipse cx="44" cy="86" rx="8" ry="10" fill="#EFC49A" stroke="#1A1A1A" stroke-width="5"/>
  <ellipse cx="116" cy="86" rx="8" ry="10" fill="#EFC49A" stroke="#1A1A1A" stroke-width="5"/>
  <ellipse cx="80" cy="82" rx="37" ry="39" fill="#EFC49A" stroke="#1A1A1A" stroke-width="5"/>
  <path d="M42 84C42 46 58 32 80 32c24 0 36 16 36 54-2-16-10-24-22-26-12-2-26 6-36 14-6 4-12 6-16 10z" fill="#E8C36B" stroke="#1A1A1A" stroke-width="5" stroke-linejoin="round"/>
  <g stroke="#1A1A1A" stroke-width="5" stroke-linejoin="round">
  <path d="M42 68c0-24 16-40 38-40s38 16 38 40c-16-10-24-12-38-12s-24 2-38 12z" fill="#DA291C"/>
  <path d="M114 60h26c6 0 8 12 0 14l-30 2z" fill="#FFFFFF"/>
  <circle cx="80" cy="28" r="6" fill="#FFFFFF"/></g>
  <g>
  <ellipse cx="66" cy="80" rx="5.5" ry="6.5" fill="#1A1A1A"/><ellipse cx="94" cy="80" rx="5.5" ry="6.5" fill="#1A1A1A"/>
  <circle cx="64" cy="77.5" r="2" fill="#FFFFFF"/><circle cx="92" cy="77.5" r="2" fill="#FFFFFF"/>
  <path d="M58 66c5-4 11-4 15-1M87 65c4-3 10-3 15 1" fill="none" stroke="#1A1A1A" stroke-width="4" stroke-linecap="round"/></g>
<g fill="#DA291C" opacity="0.25"><ellipse cx="53" cy="94" rx="9" ry="6"/><ellipse cx="107" cy="94" rx="9" ry="6"/></g>
<path d="M66 96c6 10 22 10 28 0" fill="none" stroke="#1A1A1A" stroke-width="5" stroke-linecap="round"/>
</g></g>
</g>
<circle cx="84" cy="84" r="77" fill="none" stroke="#1A1A1A" stroke-width="6"/>
</svg>
